<mxfile host="app.diagrams.net" agent="Mozilla/5.0 (Windows NT 10.0; Win64; x64) AppleWebKit/537.36 (KHTML, like Gecko) Chrome/132.0.0.0 Safari/537.36 Edg/132.0.0.0" version="26.0.10">
  <diagram name="Page-1" id="Omj9oVPF4Im8Dr4i4WeV">
    <mxGraphModel dx="2620" dy="1403" grid="1" gridSize="10" guides="1" tooltips="1" connect="0" arrows="1" fold="1" page="1" pageScale="1" pageWidth="2336" pageHeight="1654" math="0" shadow="0">
      <root>
        <mxCell id="0" />
        <mxCell id="1" parent="0" />
        <mxCell id="K8pA8t-_cUayZq1Y6Xmu-18" style="edgeStyle=orthogonalEdgeStyle;rounded=0;orthogonalLoop=1;jettySize=auto;html=1;entryX=0;entryY=0.25;entryDx=0;entryDy=0;" edge="1" parent="1" source="K8pA8t-_cUayZq1Y6Xmu-1" target="K8pA8t-_cUayZq1Y6Xmu-17">
          <mxGeometry relative="1" as="geometry" />
        </mxCell>
        <mxCell id="K8pA8t-_cUayZq1Y6Xmu-1" value="" style="whiteSpace=wrap;html=1;aspect=fixed;" vertex="1" parent="1">
          <mxGeometry x="160" y="120" width="300" height="300" as="geometry" />
        </mxCell>
        <mxCell id="K8pA8t-_cUayZq1Y6Xmu-2" value="" style="rounded=1;whiteSpace=wrap;html=1;" vertex="1" parent="1">
          <mxGeometry x="190" y="135" width="240" height="60" as="geometry" />
        </mxCell>
        <mxCell id="K8pA8t-_cUayZq1Y6Xmu-3" value="S4 Contract 1:&lt;div&gt;S/4 CLI 1&lt;br&gt;&lt;div style=&quot;&quot;&gt;&lt;span style=&quot;background-color: transparent; color: light-dark(rgb(0, 0, 0), rgb(255, 255, 255));&quot;&gt;S/4 CLI 2&lt;/span&gt;&lt;/div&gt;&lt;/div&gt;" style="text;html=1;align=left;verticalAlign=middle;whiteSpace=wrap;rounded=0;" vertex="1" parent="1">
          <mxGeometry x="190" y="150" width="100" height="40" as="geometry" />
        </mxCell>
        <mxCell id="K8pA8t-_cUayZq1Y6Xmu-4" value="" style="rounded=1;whiteSpace=wrap;html=1;" vertex="1" parent="1">
          <mxGeometry x="190" y="205" width="240" height="60" as="geometry" />
        </mxCell>
        <mxCell id="K8pA8t-_cUayZq1Y6Xmu-5" value="S4 Contract 2:&lt;div&gt;S/4 CLI 1&lt;br&gt;&lt;div style=&quot;&quot;&gt;&lt;span style=&quot;background-color: transparent; color: light-dark(rgb(0, 0, 0), rgb(255, 255, 255));&quot;&gt;S/4 CLI 2&lt;/span&gt;&lt;/div&gt;&lt;/div&gt;" style="text;html=1;align=left;verticalAlign=middle;whiteSpace=wrap;rounded=0;" vertex="1" parent="1">
          <mxGeometry x="190" y="220" width="100" height="40" as="geometry" />
        </mxCell>
        <mxCell id="K8pA8t-_cUayZq1Y6Xmu-6" value="" style="rounded=1;whiteSpace=wrap;html=1;" vertex="1" parent="1">
          <mxGeometry x="190" y="275" width="240" height="60" as="geometry" />
        </mxCell>
        <mxCell id="K8pA8t-_cUayZq1Y6Xmu-7" value="S4 Contract 3:&lt;div&gt;S/4 CLI 1&lt;br&gt;&lt;div style=&quot;&quot;&gt;&lt;span style=&quot;background-color: transparent; color: light-dark(rgb(0, 0, 0), rgb(255, 255, 255));&quot;&gt;S/4 CLI 2&lt;/span&gt;&lt;/div&gt;&lt;/div&gt;" style="text;html=1;align=left;verticalAlign=middle;whiteSpace=wrap;rounded=0;" vertex="1" parent="1">
          <mxGeometry x="190" y="290" width="100" height="40" as="geometry" />
        </mxCell>
        <mxCell id="K8pA8t-_cUayZq1Y6Xmu-8" value="" style="rounded=1;whiteSpace=wrap;html=1;" vertex="1" parent="1">
          <mxGeometry x="190" y="345" width="240" height="60" as="geometry" />
        </mxCell>
        <mxCell id="K8pA8t-_cUayZq1Y6Xmu-9" value="S4 Contract 4:&lt;div&gt;S/4 CLI 1&lt;br&gt;&lt;div style=&quot;&quot;&gt;&lt;span style=&quot;background-color: transparent; color: light-dark(rgb(0, 0, 0), rgb(255, 255, 255));&quot;&gt;S/4 CLI 2&lt;/span&gt;&lt;/div&gt;&lt;/div&gt;" style="text;html=1;align=left;verticalAlign=middle;whiteSpace=wrap;rounded=0;" vertex="1" parent="1">
          <mxGeometry x="190" y="360" width="100" height="40" as="geometry" />
        </mxCell>
        <mxCell id="K8pA8t-_cUayZq1Y6Xmu-10" value="" style="rounded=0;whiteSpace=wrap;html=1;" vertex="1" parent="1">
          <mxGeometry x="160" y="60" width="300" height="60" as="geometry" />
        </mxCell>
        <mxCell id="K8pA8t-_cUayZq1Y6Xmu-12" value="Contract Batched Request" style="text;html=1;align=center;verticalAlign=middle;whiteSpace=wrap;rounded=0;fontStyle=1;fontSize=15;" vertex="1" parent="1">
          <mxGeometry x="210" y="75" width="210" height="30" as="geometry" />
        </mxCell>
        <mxCell id="K8pA8t-_cUayZq1Y6Xmu-14" value="" style="rounded=0;whiteSpace=wrap;html=1;" vertex="1" parent="1">
          <mxGeometry x="610" y="65" width="290" height="60" as="geometry" />
        </mxCell>
        <mxCell id="K8pA8t-_cUayZq1Y6Xmu-15" value="&lt;b&gt;&lt;font style=&quot;font-size: 15px;&quot;&gt;SAP System&lt;/font&gt;&lt;/b&gt;" style="text;html=1;align=center;verticalAlign=middle;whiteSpace=wrap;rounded=0;" vertex="1" parent="1">
          <mxGeometry x="690" y="80" width="115" height="30" as="geometry" />
        </mxCell>
        <mxCell id="K8pA8t-_cUayZq1Y6Xmu-42" style="edgeStyle=orthogonalEdgeStyle;rounded=0;orthogonalLoop=1;jettySize=auto;html=1;exitX=0;exitY=0.75;exitDx=0;exitDy=0;entryX=1;entryY=0.5;entryDx=0;entryDy=0;" edge="1" parent="1" source="K8pA8t-_cUayZq1Y6Xmu-17" target="K8pA8t-_cUayZq1Y6Xmu-31">
          <mxGeometry relative="1" as="geometry" />
        </mxCell>
        <mxCell id="K8pA8t-_cUayZq1Y6Xmu-17" value="" style="rounded=0;whiteSpace=wrap;html=1;" vertex="1" parent="1">
          <mxGeometry x="610" y="120" width="290" height="720" as="geometry" />
        </mxCell>
        <mxCell id="K8pA8t-_cUayZq1Y6Xmu-19" value="&lt;font style=&quot;font-size: 14px;&quot;&gt;Contracts created in S/4&lt;/font&gt;" style="text;html=1;align=center;verticalAlign=middle;whiteSpace=wrap;rounded=0;" vertex="1" parent="1">
          <mxGeometry x="712.5" y="650" width="85" height="30" as="geometry" />
        </mxCell>
        <mxCell id="K8pA8t-_cUayZq1Y6Xmu-20" value="&lt;font style=&quot;font-size: 14px;&quot;&gt;SAP Receives Contract details for Contract creation&amp;nbsp;&lt;/font&gt;" style="text;html=1;align=center;verticalAlign=middle;whiteSpace=wrap;rounded=0;" vertex="1" parent="1">
          <mxGeometry x="687.5" y="245" width="135" height="30" as="geometry" />
        </mxCell>
        <mxCell id="K8pA8t-_cUayZq1Y6Xmu-23" value="" style="shape=curlyBracket;whiteSpace=wrap;html=1;rounded=1;labelPosition=left;verticalLabelPosition=middle;align=right;verticalAlign=middle;" vertex="1" parent="1">
          <mxGeometry x="670" y="200" width="20" height="120" as="geometry" />
        </mxCell>
        <mxCell id="K8pA8t-_cUayZq1Y6Xmu-26" value="" style="shape=curlyBracket;whiteSpace=wrap;html=1;rounded=1;labelPosition=left;verticalLabelPosition=middle;align=right;verticalAlign=middle;rotation=-180;" vertex="1" parent="1">
          <mxGeometry x="815" y="200" width="20" height="120" as="geometry" />
        </mxCell>
        <mxCell id="K8pA8t-_cUayZq1Y6Xmu-29" value="" style="shape=curlyBracket;whiteSpace=wrap;html=1;rounded=1;labelPosition=left;verticalLabelPosition=middle;align=right;verticalAlign=middle;" vertex="1" parent="1">
          <mxGeometry x="670" y="605" width="20" height="120" as="geometry" />
        </mxCell>
        <mxCell id="K8pA8t-_cUayZq1Y6Xmu-30" value="" style="shape=curlyBracket;whiteSpace=wrap;html=1;rounded=1;labelPosition=left;verticalLabelPosition=middle;align=right;verticalAlign=middle;rotation=-180;" vertex="1" parent="1">
          <mxGeometry x="815" y="605" width="20" height="120" as="geometry" />
        </mxCell>
        <mxCell id="K8pA8t-_cUayZq1Y6Xmu-31" value="" style="whiteSpace=wrap;html=1;aspect=fixed;" vertex="1" parent="1">
          <mxGeometry x="160" y="550" width="300" height="300" as="geometry" />
        </mxCell>
        <mxCell id="K8pA8t-_cUayZq1Y6Xmu-32" value="" style="rounded=1;whiteSpace=wrap;html=1;" vertex="1" parent="1">
          <mxGeometry x="190" y="565" width="240" height="60" as="geometry" />
        </mxCell>
        <mxCell id="K8pA8t-_cUayZq1Y6Xmu-33" value="S4 Contract 1:&lt;div&gt;S/4 CLI 1&lt;br&gt;&lt;div style=&quot;&quot;&gt;&lt;span style=&quot;background-color: transparent; color: light-dark(rgb(0, 0, 0), rgb(255, 255, 255));&quot;&gt;S/4 CLI 2&lt;/span&gt;&lt;/div&gt;&lt;/div&gt;" style="text;html=1;align=left;verticalAlign=middle;whiteSpace=wrap;rounded=0;" vertex="1" parent="1">
          <mxGeometry x="190" y="580" width="100" height="40" as="geometry" />
        </mxCell>
        <mxCell id="K8pA8t-_cUayZq1Y6Xmu-34" value="" style="rounded=1;whiteSpace=wrap;html=1;" vertex="1" parent="1">
          <mxGeometry x="190" y="635" width="240" height="60" as="geometry" />
        </mxCell>
        <mxCell id="K8pA8t-_cUayZq1Y6Xmu-35" value="S4 Contract 2:&lt;div&gt;S/4 CLI 1&lt;br&gt;&lt;div style=&quot;&quot;&gt;&lt;span style=&quot;background-color: transparent; color: light-dark(rgb(0, 0, 0), rgb(255, 255, 255));&quot;&gt;S/4 CLI 2&lt;/span&gt;&lt;/div&gt;&lt;/div&gt;" style="text;html=1;align=left;verticalAlign=middle;whiteSpace=wrap;rounded=0;" vertex="1" parent="1">
          <mxGeometry x="190" y="650" width="100" height="40" as="geometry" />
        </mxCell>
        <mxCell id="K8pA8t-_cUayZq1Y6Xmu-36" value="" style="rounded=1;whiteSpace=wrap;html=1;" vertex="1" parent="1">
          <mxGeometry x="190" y="705" width="240" height="60" as="geometry" />
        </mxCell>
        <mxCell id="K8pA8t-_cUayZq1Y6Xmu-37" value="S4 Contract 3:&lt;div&gt;S/4 CLI 1&lt;br&gt;&lt;div style=&quot;&quot;&gt;&lt;span style=&quot;background-color: transparent; color: light-dark(rgb(0, 0, 0), rgb(255, 255, 255));&quot;&gt;S/4 CLI 2&lt;/span&gt;&lt;/div&gt;&lt;/div&gt;" style="text;html=1;align=left;verticalAlign=middle;whiteSpace=wrap;rounded=0;" vertex="1" parent="1">
          <mxGeometry x="190" y="720" width="100" height="40" as="geometry" />
        </mxCell>
        <mxCell id="K8pA8t-_cUayZq1Y6Xmu-38" value="" style="rounded=1;whiteSpace=wrap;html=1;" vertex="1" parent="1">
          <mxGeometry x="190" y="775" width="240" height="60" as="geometry" />
        </mxCell>
        <mxCell id="K8pA8t-_cUayZq1Y6Xmu-39" value="S4 Contract 4:&lt;div&gt;S/4 CLI 1&lt;br&gt;&lt;div style=&quot;&quot;&gt;&lt;span style=&quot;background-color: transparent; color: light-dark(rgb(0, 0, 0), rgb(255, 255, 255));&quot;&gt;S/4 CLI 2&lt;/span&gt;&lt;/div&gt;&lt;/div&gt;" style="text;html=1;align=left;verticalAlign=middle;whiteSpace=wrap;rounded=0;" vertex="1" parent="1">
          <mxGeometry x="190" y="790" width="100" height="40" as="geometry" />
        </mxCell>
        <mxCell id="K8pA8t-_cUayZq1Y6Xmu-40" value="" style="rounded=0;whiteSpace=wrap;html=1;" vertex="1" parent="1">
          <mxGeometry x="160" y="490" width="300" height="60" as="geometry" />
        </mxCell>
        <mxCell id="K8pA8t-_cUayZq1Y6Xmu-41" value="Contract Batched Request" style="text;html=1;align=center;verticalAlign=middle;whiteSpace=wrap;rounded=0;fontStyle=1;fontSize=15;" vertex="1" parent="1">
          <mxGeometry x="210" y="505" width="210" height="30" as="geometry" />
        </mxCell>
        <mxCell id="K8pA8t-_cUayZq1Y6Xmu-43" value="&lt;font style=&quot;font-size: 14px;&quot;&gt;Success&lt;/font&gt;" style="text;html=1;align=center;verticalAlign=middle;whiteSpace=wrap;rounded=0;labelBackgroundColor=none;labelBorderColor=default;textShadow=0;fontColor=#009900;" vertex="1" parent="1">
          <mxGeometry x="330" y="585" width="60" height="30" as="geometry" />
        </mxCell>
        <mxCell id="K8pA8t-_cUayZq1Y6Xmu-45" value="&lt;font style=&quot;font-size: 14px;&quot;&gt;Success&lt;/font&gt;" style="text;html=1;align=center;verticalAlign=middle;whiteSpace=wrap;rounded=0;labelBackgroundColor=none;labelBorderColor=default;textShadow=0;fontColor=#009900;" vertex="1" parent="1">
          <mxGeometry x="330" y="650" width="60" height="30" as="geometry" />
        </mxCell>
        <mxCell id="K8pA8t-_cUayZq1Y6Xmu-46" value="&lt;font style=&quot;font-size: 14px;&quot;&gt;Success&lt;/font&gt;" style="text;html=1;align=center;verticalAlign=middle;whiteSpace=wrap;rounded=0;labelBackgroundColor=none;labelBorderColor=default;textShadow=0;fontColor=#009900;" vertex="1" parent="1">
          <mxGeometry x="330" y="790" width="60" height="30" as="geometry" />
        </mxCell>
        <mxCell id="K8pA8t-_cUayZq1Y6Xmu-47" value="&lt;font style=&quot;font-size: 14px; color: rgb(255, 0, 0);&quot;&gt;Error&lt;/font&gt;" style="text;html=1;align=center;verticalAlign=middle;whiteSpace=wrap;rounded=0;labelBackgroundColor=none;labelBorderColor=default;textShadow=0;fontColor=#009900;" vertex="1" parent="1">
          <mxGeometry x="330" y="725" width="60" height="30" as="geometry" />
        </mxCell>
        <mxCell id="K8pA8t-_cUayZq1Y6Xmu-48" style="edgeStyle=orthogonalEdgeStyle;rounded=0;orthogonalLoop=1;jettySize=auto;html=1;entryX=0;entryY=0.25;entryDx=0;entryDy=0;" edge="1" parent="1" source="K8pA8t-_cUayZq1Y6Xmu-49" target="K8pA8t-_cUayZq1Y6Xmu-63">
          <mxGeometry relative="1" as="geometry" />
        </mxCell>
        <mxCell id="K8pA8t-_cUayZq1Y6Xmu-49" value="" style="whiteSpace=wrap;html=1;aspect=fixed;" vertex="1" parent="1">
          <mxGeometry x="1280" y="125" width="300" height="300" as="geometry" />
        </mxCell>
        <mxCell id="K8pA8t-_cUayZq1Y6Xmu-50" value="" style="rounded=1;whiteSpace=wrap;html=1;" vertex="1" parent="1">
          <mxGeometry x="1310" y="140" width="240" height="60" as="geometry" />
        </mxCell>
        <mxCell id="K8pA8t-_cUayZq1Y6Xmu-51" value="S4 Contract 1:&lt;div&gt;S/4 CLI 1&lt;br&gt;&lt;div style=&quot;&quot;&gt;&lt;span style=&quot;background-color: transparent; color: light-dark(rgb(0, 0, 0), rgb(255, 255, 255));&quot;&gt;S/4 CLI 2&lt;/span&gt;&lt;/div&gt;&lt;/div&gt;" style="text;html=1;align=left;verticalAlign=middle;whiteSpace=wrap;rounded=0;" vertex="1" parent="1">
          <mxGeometry x="1310" y="155" width="100" height="40" as="geometry" />
        </mxCell>
        <mxCell id="K8pA8t-_cUayZq1Y6Xmu-52" value="" style="rounded=1;whiteSpace=wrap;html=1;" vertex="1" parent="1">
          <mxGeometry x="1310" y="210" width="240" height="60" as="geometry" />
        </mxCell>
        <mxCell id="K8pA8t-_cUayZq1Y6Xmu-53" value="S4 Contract 2:&lt;div&gt;S/4 CLI 1&lt;br&gt;&lt;div style=&quot;&quot;&gt;&lt;span style=&quot;background-color: transparent; color: light-dark(rgb(0, 0, 0), rgb(255, 255, 255));&quot;&gt;S/4 CLI 2&lt;/span&gt;&lt;/div&gt;&lt;/div&gt;" style="text;html=1;align=left;verticalAlign=middle;whiteSpace=wrap;rounded=0;" vertex="1" parent="1">
          <mxGeometry x="1310" y="225" width="100" height="40" as="geometry" />
        </mxCell>
        <mxCell id="K8pA8t-_cUayZq1Y6Xmu-54" value="" style="rounded=1;whiteSpace=wrap;html=1;" vertex="1" parent="1">
          <mxGeometry x="1310" y="280" width="240" height="60" as="geometry" />
        </mxCell>
        <mxCell id="K8pA8t-_cUayZq1Y6Xmu-55" value="S4 Contract 3:&lt;div&gt;S/4 CLI 1&lt;br&gt;&lt;div style=&quot;&quot;&gt;&lt;span style=&quot;background-color: transparent; color: light-dark(rgb(0, 0, 0), rgb(255, 255, 255));&quot;&gt;S/4 CLI 2&lt;/span&gt;&lt;/div&gt;&lt;/div&gt;" style="text;html=1;align=left;verticalAlign=middle;whiteSpace=wrap;rounded=0;" vertex="1" parent="1">
          <mxGeometry x="1310" y="295" width="100" height="40" as="geometry" />
        </mxCell>
        <mxCell id="K8pA8t-_cUayZq1Y6Xmu-56" value="" style="rounded=1;whiteSpace=wrap;html=1;" vertex="1" parent="1">
          <mxGeometry x="1310" y="350" width="240" height="60" as="geometry" />
        </mxCell>
        <mxCell id="K8pA8t-_cUayZq1Y6Xmu-57" value="S4 Contract 4:&lt;div&gt;S/4 CLI 1&lt;br&gt;&lt;div style=&quot;&quot;&gt;&lt;span style=&quot;background-color: transparent; color: light-dark(rgb(0, 0, 0), rgb(255, 255, 255));&quot;&gt;S/4 CLI 2&lt;/span&gt;&lt;/div&gt;&lt;/div&gt;" style="text;html=1;align=left;verticalAlign=middle;whiteSpace=wrap;rounded=0;" vertex="1" parent="1">
          <mxGeometry x="1310" y="365" width="100" height="40" as="geometry" />
        </mxCell>
        <mxCell id="K8pA8t-_cUayZq1Y6Xmu-58" value="" style="rounded=0;whiteSpace=wrap;html=1;" vertex="1" parent="1">
          <mxGeometry x="1280" y="65" width="300" height="60" as="geometry" />
        </mxCell>
        <mxCell id="K8pA8t-_cUayZq1Y6Xmu-59" value="Contract Batched Request" style="text;html=1;align=center;verticalAlign=middle;whiteSpace=wrap;rounded=0;fontStyle=1;fontSize=15;" vertex="1" parent="1">
          <mxGeometry x="1330" y="80" width="210" height="30" as="geometry" />
        </mxCell>
        <mxCell id="K8pA8t-_cUayZq1Y6Xmu-60" value="" style="rounded=0;whiteSpace=wrap;html=1;" vertex="1" parent="1">
          <mxGeometry x="1730" y="70" width="290" height="60" as="geometry" />
        </mxCell>
        <mxCell id="K8pA8t-_cUayZq1Y6Xmu-61" value="&lt;b&gt;&lt;font style=&quot;font-size: 15px;&quot;&gt;SAP System&lt;/font&gt;&lt;/b&gt;" style="text;html=1;align=center;verticalAlign=middle;whiteSpace=wrap;rounded=0;" vertex="1" parent="1">
          <mxGeometry x="1810" y="85" width="115" height="30" as="geometry" />
        </mxCell>
        <mxCell id="K8pA8t-_cUayZq1Y6Xmu-62" style="edgeStyle=orthogonalEdgeStyle;rounded=0;orthogonalLoop=1;jettySize=auto;html=1;exitX=0;exitY=0.75;exitDx=0;exitDy=0;entryX=1;entryY=0.5;entryDx=0;entryDy=0;" edge="1" parent="1" source="K8pA8t-_cUayZq1Y6Xmu-63" target="K8pA8t-_cUayZq1Y6Xmu-70">
          <mxGeometry relative="1" as="geometry" />
        </mxCell>
        <mxCell id="K8pA8t-_cUayZq1Y6Xmu-63" value="" style="rounded=0;whiteSpace=wrap;html=1;" vertex="1" parent="1">
          <mxGeometry x="1730" y="125" width="290" height="720" as="geometry" />
        </mxCell>
        <mxCell id="K8pA8t-_cUayZq1Y6Xmu-64" value="&lt;font style=&quot;font-size: 14px;&quot;&gt;Contracts created in S/4&lt;/font&gt;" style="text;html=1;align=center;verticalAlign=middle;whiteSpace=wrap;rounded=0;" vertex="1" parent="1">
          <mxGeometry x="1832.5" y="655" width="85" height="30" as="geometry" />
        </mxCell>
        <mxCell id="K8pA8t-_cUayZq1Y6Xmu-65" value="&lt;font style=&quot;font-size: 14px;&quot;&gt;SAP Receives Contract details for Contract creation&amp;nbsp;&lt;/font&gt;" style="text;html=1;align=center;verticalAlign=middle;whiteSpace=wrap;rounded=0;" vertex="1" parent="1">
          <mxGeometry x="1807.5" y="250" width="135" height="30" as="geometry" />
        </mxCell>
        <mxCell id="K8pA8t-_cUayZq1Y6Xmu-66" value="" style="shape=curlyBracket;whiteSpace=wrap;html=1;rounded=1;labelPosition=left;verticalLabelPosition=middle;align=right;verticalAlign=middle;" vertex="1" parent="1">
          <mxGeometry x="1790" y="205" width="20" height="120" as="geometry" />
        </mxCell>
        <mxCell id="K8pA8t-_cUayZq1Y6Xmu-67" value="" style="shape=curlyBracket;whiteSpace=wrap;html=1;rounded=1;labelPosition=left;verticalLabelPosition=middle;align=right;verticalAlign=middle;rotation=-180;" vertex="1" parent="1">
          <mxGeometry x="1935" y="205" width="20" height="120" as="geometry" />
        </mxCell>
        <mxCell id="K8pA8t-_cUayZq1Y6Xmu-68" value="" style="shape=curlyBracket;whiteSpace=wrap;html=1;rounded=1;labelPosition=left;verticalLabelPosition=middle;align=right;verticalAlign=middle;" vertex="1" parent="1">
          <mxGeometry x="1790" y="610" width="20" height="120" as="geometry" />
        </mxCell>
        <mxCell id="K8pA8t-_cUayZq1Y6Xmu-69" value="" style="shape=curlyBracket;whiteSpace=wrap;html=1;rounded=1;labelPosition=left;verticalLabelPosition=middle;align=right;verticalAlign=middle;rotation=-180;" vertex="1" parent="1">
          <mxGeometry x="1935" y="610" width="20" height="120" as="geometry" />
        </mxCell>
        <mxCell id="K8pA8t-_cUayZq1Y6Xmu-70" value="" style="whiteSpace=wrap;html=1;aspect=fixed;" vertex="1" parent="1">
          <mxGeometry x="1280" y="555" width="300" height="300" as="geometry" />
        </mxCell>
        <mxCell id="K8pA8t-_cUayZq1Y6Xmu-71" value="" style="rounded=1;whiteSpace=wrap;html=1;" vertex="1" parent="1">
          <mxGeometry x="1310" y="570" width="240" height="60" as="geometry" />
        </mxCell>
        <mxCell id="K8pA8t-_cUayZq1Y6Xmu-72" value="S4 Contract 1:&lt;div&gt;S/4 CLI 1&lt;br&gt;&lt;div style=&quot;&quot;&gt;&lt;span style=&quot;background-color: transparent; color: light-dark(rgb(0, 0, 0), rgb(255, 255, 255));&quot;&gt;S/4 CLI 2&lt;/span&gt;&lt;/div&gt;&lt;/div&gt;" style="text;html=1;align=left;verticalAlign=middle;whiteSpace=wrap;rounded=0;" vertex="1" parent="1">
          <mxGeometry x="1310" y="585" width="100" height="40" as="geometry" />
        </mxCell>
        <mxCell id="K8pA8t-_cUayZq1Y6Xmu-73" value="" style="rounded=1;whiteSpace=wrap;html=1;" vertex="1" parent="1">
          <mxGeometry x="1310" y="640" width="240" height="60" as="geometry" />
        </mxCell>
        <mxCell id="K8pA8t-_cUayZq1Y6Xmu-74" value="S4 Contract 2:&lt;div&gt;S/4 CLI 1&lt;br&gt;&lt;div style=&quot;&quot;&gt;&lt;span style=&quot;background-color: transparent; color: light-dark(rgb(0, 0, 0), rgb(255, 255, 255));&quot;&gt;S/4 CLI 2&lt;/span&gt;&lt;/div&gt;&lt;/div&gt;" style="text;html=1;align=left;verticalAlign=middle;whiteSpace=wrap;rounded=0;" vertex="1" parent="1">
          <mxGeometry x="1310" y="655" width="100" height="40" as="geometry" />
        </mxCell>
        <mxCell id="K8pA8t-_cUayZq1Y6Xmu-75" value="" style="rounded=1;whiteSpace=wrap;html=1;" vertex="1" parent="1">
          <mxGeometry x="1310" y="710" width="240" height="60" as="geometry" />
        </mxCell>
        <mxCell id="K8pA8t-_cUayZq1Y6Xmu-76" value="S4 Contract 3:&lt;div&gt;S/4 CLI 1&lt;br&gt;&lt;div style=&quot;&quot;&gt;&lt;span style=&quot;background-color: transparent; color: light-dark(rgb(0, 0, 0), rgb(255, 255, 255));&quot;&gt;S/4 CLI 2&lt;/span&gt;&lt;/div&gt;&lt;/div&gt;" style="text;html=1;align=left;verticalAlign=middle;whiteSpace=wrap;rounded=0;" vertex="1" parent="1">
          <mxGeometry x="1310" y="725" width="100" height="40" as="geometry" />
        </mxCell>
        <mxCell id="K8pA8t-_cUayZq1Y6Xmu-77" value="" style="rounded=1;whiteSpace=wrap;html=1;" vertex="1" parent="1">
          <mxGeometry x="1310" y="780" width="240" height="60" as="geometry" />
        </mxCell>
        <mxCell id="K8pA8t-_cUayZq1Y6Xmu-78" value="S4 Contract 4:&lt;div&gt;S/4 CLI 1&lt;br&gt;&lt;div style=&quot;&quot;&gt;&lt;span style=&quot;background-color: transparent; color: light-dark(rgb(0, 0, 0), rgb(255, 255, 255));&quot;&gt;S/4 CLI 2&lt;/span&gt;&lt;/div&gt;&lt;/div&gt;" style="text;html=1;align=left;verticalAlign=middle;whiteSpace=wrap;rounded=0;" vertex="1" parent="1">
          <mxGeometry x="1310" y="795" width="100" height="40" as="geometry" />
        </mxCell>
        <mxCell id="K8pA8t-_cUayZq1Y6Xmu-79" value="" style="rounded=0;whiteSpace=wrap;html=1;" vertex="1" parent="1">
          <mxGeometry x="1280" y="495" width="300" height="60" as="geometry" />
        </mxCell>
        <mxCell id="K8pA8t-_cUayZq1Y6Xmu-80" value="Contract Batched Request" style="text;html=1;align=center;verticalAlign=middle;whiteSpace=wrap;rounded=0;fontStyle=1;fontSize=15;" vertex="1" parent="1">
          <mxGeometry x="1330" y="510" width="210" height="30" as="geometry" />
        </mxCell>
        <mxCell id="K8pA8t-_cUayZq1Y6Xmu-81" value="&lt;font style=&quot;font-size: 14px;&quot;&gt;Success&lt;/font&gt;" style="text;html=1;align=center;verticalAlign=middle;whiteSpace=wrap;rounded=0;labelBackgroundColor=none;labelBorderColor=default;textShadow=0;fontColor=#009900;" vertex="1" parent="1">
          <mxGeometry x="1450" y="590" width="60" height="30" as="geometry" />
        </mxCell>
        <mxCell id="K8pA8t-_cUayZq1Y6Xmu-82" value="&lt;font style=&quot;font-size: 14px;&quot;&gt;Success&lt;/font&gt;" style="text;html=1;align=center;verticalAlign=middle;whiteSpace=wrap;rounded=0;labelBackgroundColor=none;labelBorderColor=default;textShadow=0;fontColor=#009900;" vertex="1" parent="1">
          <mxGeometry x="1450" y="655" width="60" height="30" as="geometry" />
        </mxCell>
        <mxCell id="K8pA8t-_cUayZq1Y6Xmu-83" value="&lt;font style=&quot;font-size: 14px;&quot;&gt;Success&lt;/font&gt;" style="text;html=1;align=center;verticalAlign=middle;whiteSpace=wrap;rounded=0;labelBackgroundColor=none;labelBorderColor=default;textShadow=0;fontColor=#009900;" vertex="1" parent="1">
          <mxGeometry x="1450" y="795" width="60" height="30" as="geometry" />
        </mxCell>
        <mxCell id="K8pA8t-_cUayZq1Y6Xmu-85" value="&lt;font style=&quot;font-size: 14px;&quot;&gt;Awaiting Response&lt;/font&gt;" style="text;html=1;align=center;verticalAlign=middle;whiteSpace=wrap;rounded=0;labelBackgroundColor=#000000;labelBorderColor=default;textShadow=0;fontColor=#FFFF00;" vertex="1" parent="1">
          <mxGeometry x="300" y="150" width="130" height="30" as="geometry" />
        </mxCell>
        <mxCell id="K8pA8t-_cUayZq1Y6Xmu-87" value="&lt;font style=&quot;font-size: 14px;&quot;&gt;Awaiting Response&lt;/font&gt;" style="text;html=1;align=center;verticalAlign=middle;whiteSpace=wrap;rounded=0;labelBackgroundColor=#000000;labelBorderColor=default;textShadow=0;fontColor=#FFFF00;" vertex="1" parent="1">
          <mxGeometry x="300" y="220" width="130" height="30" as="geometry" />
        </mxCell>
        <mxCell id="K8pA8t-_cUayZq1Y6Xmu-88" value="&lt;font style=&quot;font-size: 14px;&quot;&gt;Awaiting Response&lt;/font&gt;" style="text;html=1;align=center;verticalAlign=middle;whiteSpace=wrap;rounded=0;labelBackgroundColor=#000000;labelBorderColor=default;textShadow=0;fontColor=#FFFF00;" vertex="1" parent="1">
          <mxGeometry x="300" y="290" width="130" height="30" as="geometry" />
        </mxCell>
        <mxCell id="K8pA8t-_cUayZq1Y6Xmu-89" value="&lt;font style=&quot;font-size: 14px;&quot;&gt;Awaiting Response&lt;/font&gt;" style="text;html=1;align=center;verticalAlign=middle;whiteSpace=wrap;rounded=0;labelBackgroundColor=#000000;labelBorderColor=default;textShadow=0;fontColor=#FFFF00;" vertex="1" parent="1">
          <mxGeometry x="300" y="360" width="130" height="30" as="geometry" />
        </mxCell>
        <mxCell id="K8pA8t-_cUayZq1Y6Xmu-90" value="&lt;font style=&quot;font-size: 14px;&quot;&gt;Success&lt;/font&gt;" style="text;html=1;align=center;verticalAlign=middle;whiteSpace=wrap;rounded=0;labelBackgroundColor=none;labelBorderColor=default;textShadow=0;fontColor=#009900;" vertex="1" parent="1">
          <mxGeometry x="1450" y="720" width="60" height="30" as="geometry" />
        </mxCell>
        <mxCell id="K8pA8t-_cUayZq1Y6Xmu-91" value="&lt;font style=&quot;font-size: 14px; color: rgb(255, 0, 0);&quot;&gt;Error&lt;/font&gt;" style="text;html=1;align=center;verticalAlign=middle;whiteSpace=wrap;rounded=0;labelBackgroundColor=none;labelBorderColor=default;textShadow=0;fontColor=#009900;" vertex="1" parent="1">
          <mxGeometry x="1460" y="155" width="60" height="30" as="geometry" />
        </mxCell>
        <mxCell id="K8pA8t-_cUayZq1Y6Xmu-92" value="&lt;font style=&quot;font-size: 14px; color: rgb(255, 0, 0);&quot;&gt;Error&lt;/font&gt;" style="text;html=1;align=center;verticalAlign=middle;whiteSpace=wrap;rounded=0;labelBackgroundColor=none;labelBorderColor=default;textShadow=0;fontColor=#009900;" vertex="1" parent="1">
          <mxGeometry x="1460" y="225" width="60" height="30" as="geometry" />
        </mxCell>
        <mxCell id="K8pA8t-_cUayZq1Y6Xmu-93" value="&lt;font style=&quot;font-size: 14px; color: rgb(255, 0, 0);&quot;&gt;Error&lt;/font&gt;" style="text;html=1;align=center;verticalAlign=middle;whiteSpace=wrap;rounded=0;labelBackgroundColor=none;labelBorderColor=default;textShadow=0;fontColor=#009900;" vertex="1" parent="1">
          <mxGeometry x="1460" y="300" width="60" height="30" as="geometry" />
        </mxCell>
        <mxCell id="K8pA8t-_cUayZq1Y6Xmu-94" value="&lt;font style=&quot;font-size: 14px; color: rgb(255, 0, 0);&quot;&gt;Error&lt;/font&gt;" style="text;html=1;align=center;verticalAlign=middle;whiteSpace=wrap;rounded=0;labelBackgroundColor=none;labelBorderColor=default;textShadow=0;fontColor=#009900;" vertex="1" parent="1">
          <mxGeometry x="1460" y="370" width="60" height="30" as="geometry" />
        </mxCell>
        <mxCell id="K8pA8t-_cUayZq1Y6Xmu-95" value="Text" style="text;html=1;align=center;verticalAlign=middle;whiteSpace=wrap;rounded=0;" vertex="1" parent="1">
          <mxGeometry x="580" y="280" width="60" height="30" as="geometry" />
        </mxCell>
        <mxCell id="K8pA8t-_cUayZq1Y6Xmu-96" value="&lt;b&gt;&lt;font style=&quot;font-size: 20px;&quot;&gt;&lt;u&gt;Contract Creation Retry&lt;/u&gt;&lt;/font&gt;&lt;/b&gt;" style="text;html=1;align=center;verticalAlign=middle;whiteSpace=wrap;rounded=0;" vertex="1" parent="1">
          <mxGeometry x="1520" y="20" width="290" height="30" as="geometry" />
        </mxCell>
      </root>
    </mxGraphModel>
  </diagram>
</mxfile>
